<?xml version="1.0" encoding="iso-8859-1"?>
<!-- Generator: Adobe Illustrator 19.0.0, SVG Export Plug-In . SVG Version: 6.00 Build 0)  -->
<svg version="1.1" id="Layer_1" xmlns="http://www.w3.org/2000/svg" xmlns:xlink="http://www.w3.org/1999/xlink" x="0px" y="0px"
	 viewBox="0 0 512 512" style="enable-background:new 0 0 512 512;" xml:space="preserve">
<rect x="17.701" y="119.977" style="fill:#FEC76B;" width="476.599" height="392.023"/>
<rect x="323.517" y="261.356" style="fill:#F53635;" width="137.025" height="250.644"/>
<g>
	<rect x="357.275" y="295.115" style="fill:#F0F0F0;" width="69.505" height="93.321"/>
	<rect x="51.459" y="261.356" style="fill:#F0F0F0;" width="238.299" height="160.836"/>
</g>
<path style="fill:#F75E5D;" d="M170.67,119.977L256,97.471l85.33,22.505c0,47.127-38.203,85.341-85.33,85.341
	S170.67,167.103,170.67,119.977z"/>
<g>
	<path style="fill:#F53635;" d="M341.341,119.977l85.33-22.505L512,119.977c0,47.127-38.203,85.341-85.33,85.341
		S341.341,167.103,341.341,119.977z"/>
	<path style="fill:#F53635;" d="M0,119.977l85.33-22.505l85.33,22.505c0,47.127-38.203,85.341-85.33,85.341S0,167.103,0,119.977z"/>
	<path style="fill:#F53635;" d="M210.503,286.675h-79.785c-4.662,0-8.44,3.778-8.44,8.44v11.253c0,4.662,3.778,8.44,8.44,8.44
		c4.662,0,8.44-3.778,8.44-8.44v-2.813h23.013v76.442h-2.813c-4.662,0-8.44,3.778-8.44,8.44s3.778,8.44,8.44,8.44h22.506
		c4.662,0,8.44-3.778,8.44-8.44s-3.778-8.44-8.44-8.44h-2.813v-76.442h23.014v2.813c0,4.662,3.778,8.44,8.44,8.44
		s8.44-3.778,8.44-8.44v-11.253C218.942,290.454,215.165,286.675,210.503,286.675z"/>
</g>
<path style="fill:#F75E5D;" d="M418.34,430.634h-52.626c-4.662,0-8.44-3.778-8.44-8.44s3.778-8.44,8.44-8.44h52.626
	c4.662,0,8.44,3.778,8.44,8.44S423.001,430.634,418.34,430.634z"/>
<g>
	<polygon style="fill:#C40200;" points="170.67,0 193.176,59.988 170.67,119.977 0,119.977 0,0 	"/>
	<polygon style="fill:#C40200;" points="341.33,0 318.824,59.988 341.33,119.977 512,119.977 512,0 	"/>
</g>
<rect x="170.67" style="fill:#F53635;" width="170.659" height="119.977"/>
<g>
</g>
<g>
</g>
<g>
</g>
<g>
</g>
<g>
</g>
<g>
</g>
<g>
</g>
<g>
</g>
<g>
</g>
<g>
</g>
<g>
</g>
<g>
</g>
<g>
</g>
<g>
</g>
<g>
</g>
</svg>
